# xmcd
#
# Track frame offsets:
#	150
#	11527
#	24650
#	39062
#	50207
#	60745
#	79967
#	91022
#	103677
#	114760
#	129532
#	145750
#
# Disc length: 2136 seconds
#
# Revision: 0
# Processed by: cddbd v1.5.1PL0 Copyright (c) Steve Scherf et al.
# Submitted via: EasyCDDAExtractor 7.5.0.1
#
DISCID=9208560c
DTITLE=Various Artist - Gauchão 01
DYEAR=1900
DGENRE=
TTITLE0=Os Farrapos - Tempo de Infância
TTITLE1=Os Nativos - Ciranda do Tempo
TTITLE2=Os Filhos do Sul - Amo Só Você
TTITLE3=Os Gaudérios - Gauderiadas
TTITLE4=Os Araganos - No Tranco do Fandango
TTITLE5=Oswaldir and Carlos Magrão - Melô do Cruzaids
TTITLE6=Os Filhos do Sul - Xote dos Xotes
TTITLE7=Velho Milongueiro - Minha Rizada
TTITLE8=Os Caciques - O Bugio e a Morena
TTITLE9=Os Gaudérios - Mochilas de Amores
TTITLE10=Os Farrapos - Não Tá Morto Quem Peleia
TTITLE11=Os Caciques - Saudades Me Faz Lembrar
EXTD=
EXTT0=
EXTT1=
EXTT2=
EXTT3=
EXTT4=
EXTT5=
EXTT6=
EXTT7=
EXTT8=
EXTT9=
EXTT10=
EXTT11=
PLAYORDER=
